<svg xmlns="http://www.w3.org/2000/svg" viewBox="0 0 920 520" role="img" aria-labelledby="title desc">
  <title id="title">IoTデバイスからAWSまでの全体構成</title>
  <desc id="desc">IoT DeviceからSORACOMを経由しAWS IoT Core、Lambda、S3またはTimestreamへ連携する構成図</desc>
  <rect width="920" height="520" rx="18" fill="#f8fbfa"/>
  <rect x="48" y="58" width="824" height="404" rx="16" fill="#ffffff" stroke="#d9e3e1"/>
  <text x="86" y="112" fill="#102a32" font-family="Arial, sans-serif" font-size="28" font-weight="700">IoT Handson Architecture</text>
  <text x="86" y="146" fill="#52666d" font-family="Arial, sans-serif" font-size="16">Device telemetry flows through SORACOM into AWS services.</text>

  <g transform="translate(86 220)">
    <rect width="142" height="96" rx="8" fill="#e8f4f3" stroke="#b8d7d3"/>
    <circle cx="45" cy="39" r="16" fill="#0b6f7f"/>
    <rect x="75" y="25" width="34" height="28" rx="5" fill="#0b6f7f"/>
    <path d="M50 57v14h41V53" fill="none" stroke="#0b6f7f" stroke-width="6" stroke-linecap="round"/>
    <text x="71" y="78" text-anchor="middle" fill="#102a32" font-family="Arial, sans-serif" font-size="15" font-weight="700">IoT Device</text>
  </g>

  <g transform="translate(302 211)">
    <rect width="168" height="114" rx="8" fill="#edf8f7" stroke="#9bd4ce"/>
    <path d="M49 61c18-34 51-34 69 0" fill="none" stroke="#0b6f7f" stroke-width="9" stroke-linecap="round"/>
    <path d="M67 65c8-15 25-15 33 0" fill="none" stroke="#0b6f7f" stroke-width="8" stroke-linecap="round"/>
    <circle cx="84" cy="76" r="7" fill="#0b6f7f"/>
    <text x="84" y="99" text-anchor="middle" fill="#102a32" font-family="Arial, sans-serif" font-size="16" font-weight="700">SORACOM</text>
    <text x="84" y="120" text-anchor="middle" fill="#52666d" font-family="Arial, sans-serif" font-size="12">Air / Beam / Funnel</text>
  </g>

  <g transform="translate(552 194)">
    <rect width="230" height="148" rx="8" fill="#fff7e8" stroke="#f0cf8a"/>
    <text x="115" y="40" text-anchor="middle" fill="#102a32" font-family="Arial, sans-serif" font-size="18" font-weight="700">AWS</text>
    <rect x="29" y="64" width="74" height="42" rx="6" fill="#f5b84b"/>
    <text x="66" y="90" text-anchor="middle" fill="#102a32" font-family="Arial, sans-serif" font-size="12" font-weight="700">IoT Core</text>
    <rect x="127" y="64" width="74" height="42" rx="6" fill="#f5b84b"/>
    <text x="164" y="90" text-anchor="middle" fill="#102a32" font-family="Arial, sans-serif" font-size="12" font-weight="700">Lambda</text>
    <rect x="29" y="122" width="74" height="42" rx="6" fill="#ffffff" stroke="#f0cf8a"/>
    <text x="66" y="148" text-anchor="middle" fill="#102a32" font-family="Arial, sans-serif" font-size="12" font-weight="700">S3</text>
    <rect x="127" y="122" width="74" height="42" rx="6" fill="#ffffff" stroke="#f0cf8a"/>
    <text x="164" y="148" text-anchor="middle" fill="#102a32" font-family="Arial, sans-serif" font-size="12" font-weight="700">Timestream</text>
  </g>

  <path d="M236 268h50" fill="none" stroke="#0b6f7f" stroke-width="6" stroke-linecap="round"/>
  <path d="M286 268l-15-10v20z" fill="#0b6f7f"/>
  <path d="M482 268h52" fill="none" stroke="#0b6f7f" stroke-width="6" stroke-linecap="round"/>
  <path d="M534 268l-15-10v20z" fill="#0b6f7f"/>

  <g transform="translate(89 374)">
    <rect width="736" height="48" rx="8" fill="#f5f8f7" stroke="#d9e3e1"/>
    <text x="24" y="30" fill="#52666d" font-family="Arial, sans-serif" font-size="14">Hands-on path: connect device → verify SORACOM → forward to AWS → visualize and clean up resources</text>
  </g>
</svg>
